solid CATIA STL
  facet normal  8.314697e-001  5.555701e-001  0.000000e+000
    outer loop
      vertex  4.464466e+000  8.035534e+000  0.000000e+000
      vertex  3.380602e+000  9.657651e+000  0.000000e+000
      vertex  4.464466e+000  8.035534e+000  5.000000e+002
    endloop
  endfacet
  facet normal  8.314697e-001  5.555701e-001  0.000000e+000
    outer loop
      vertex  4.464466e+000  8.035534e+000  5.000000e+002
      vertex  3.380602e+000  9.657651e+000  0.000000e+000
      vertex  3.380602e+000  9.657651e+000  5.000000e+002
    endloop
  endfacet
  facet normal  9.807853e-001  1.950904e-001  0.000000e+000
    outer loop
      vertex  3.380602e+000  9.657651e+000  0.000000e+000
      vertex  3.000000e+000  1.157107e+001  0.000000e+000
      vertex  3.380602e+000  9.657651e+000  5.000000e+002
    endloop
  endfacet
  facet normal  9.807853e-001  1.950904e-001  0.000000e+000
    outer loop
      vertex  3.380602e+000  9.657651e+000  5.000000e+002
      vertex  3.000000e+000  1.157107e+001  0.000000e+000
      vertex  3.000000e+000  1.157107e+001  5.000000e+002
    endloop
  endfacet
  facet normal  7.071068e-001  7.071068e-001  0.000000e+000
    outer loop
      vertex  4.464466e+000  8.035534e+000  0.000000e+000
      vertex  4.464466e+000  8.035534e+000  5.000000e+002
      vertex  1.079289e+001  1.707107e+000  0.000000e+000
    endloop
  endfacet
  facet normal  7.071068e-001  7.071068e-001  -0.000000e+000
    outer loop
      vertex  1.079289e+001  1.707107e+000  0.000000e+000
      vertex  4.464466e+000  8.035534e+000  5.000000e+002
      vertex  1.079289e+001  1.707107e+000  5.000000e+002
    endloop
  endfacet
  facet normal  1.000000e+000  0.000000e+000  0.000000e+000
    outer loop
      vertex  3.000000e+000  1.400000e+001  0.000000e+000
      vertex  3.000000e+000  1.400000e+001  5.000000e+002
      vertex  3.000000e+000  1.157107e+001  0.000000e+000
    endloop
  endfacet
  facet normal  1.000000e+000  0.000000e+000  0.000000e+000
    outer loop
      vertex  3.000000e+000  1.157107e+001  0.000000e+000
      vertex  3.000000e+000  1.400000e+001  5.000000e+002
      vertex  3.000000e+000  1.157107e+001  5.000000e+002
    endloop
  endfacet
  facet normal  0.000000e+000  0.000000e+000 -1.000000e+000
    outer loop
      vertex  5.707107e+000  1.529289e+001  0.000000e+000
      vertex  5.000000e+000  1.500000e+001  0.000000e+000
      vertex  4.000000e+000  1.500000e+001  0.000000e+000
    endloop
  endfacet
  facet normal  0.000000e+000  0.000000e+000 -1.000000e+000
    outer loop
      vertex  5.707107e+000  1.529289e+001  0.000000e+000
      vertex  4.000000e+000  1.500000e+001  0.000000e+000
      vertex -4.000000e+000  1.500000e+001  0.000000e+000
    endloop
  endfacet
  facet normal  0.000000e+000  0.000000e+000 -1.000000e+000
    outer loop
      vertex  5.707107e+000  1.529289e+001  0.000000e+000
      vertex -4.000000e+000  1.500000e+001  0.000000e+000
      vertex -5.000000e+000  1.500000e+001  0.000000e+000
    endloop
  endfacet
  facet normal  0.000000e+000  0.000000e+000 -1.000000e+000
    outer loop
      vertex  5.707107e+000  1.529289e+001  0.000000e+000
      vertex -5.000000e+000  1.500000e+001  0.000000e+000
      vertex -5.707107e+000  1.529289e+001  0.000000e+000
    endloop
  endfacet
  facet normal  0.000000e+000  0.000000e+000 -1.000000e+000
    outer loop
      vertex  5.707107e+000  1.529289e+001  0.000000e+000
      vertex -5.707107e+000  1.529289e+001  0.000000e+000
      vertex -6.000000e+000  1.600000e+001  0.000000e+000
    endloop
  endfacet
  facet normal  0.000000e+000  0.000000e+000 -1.000000e+000
    outer loop
      vertex  5.707107e+000  1.529289e+001  0.000000e+000
      vertex -6.000000e+000  1.600000e+001  0.000000e+000
      vertex  6.000000e+000  1.600000e+001  0.000000e+000
    endloop
  endfacet
  facet normal  0.000000e+000  0.000000e+000 -1.000000e+000
    outer loop
      vertex  5.414214e+000  2.441421e+001  0.000000e+000
      vertex -4.000000e+000  2.500000e+001  0.000000e+000
      vertex  4.000000e+000  2.500000e+001  0.000000e+000
    endloop
  endfacet
  facet normal  0.000000e+000  0.000000e+000 -1.000000e+000
    outer loop
      vertex -4.000000e+000  2.500000e+001  0.000000e+000
      vertex  5.414214e+000  2.441421e+001  0.000000e+000
      vertex -5.414214e+000  2.441421e+001  0.000000e+000
    endloop
  endfacet
  facet normal  0.000000e+000  0.000000e+000 -1.000000e+000
    outer loop
      vertex -5.414214e+000  2.441421e+001  0.000000e+000
      vertex  5.414214e+000  2.441421e+001  0.000000e+000
      vertex  6.000000e+000  2.300000e+001  0.000000e+000
    endloop
  endfacet
  facet normal  0.000000e+000  0.000000e+000 -1.000000e+000
    outer loop
      vertex -5.414214e+000  2.441421e+001  0.000000e+000
      vertex  6.000000e+000  2.300000e+001  0.000000e+000
      vertex -6.000000e+000  2.300000e+001  0.000000e+000
    endloop
  endfacet
  facet normal  0.000000e+000  0.000000e+000 -1.000000e+000
    outer loop
      vertex -6.000000e+000  2.300000e+001  0.000000e+000
      vertex  6.000000e+000  2.300000e+001  0.000000e+000
      vertex  6.000000e+000  1.600000e+001  0.000000e+000
    endloop
  endfacet
  facet normal  0.000000e+000  0.000000e+000 -1.000000e+000
    outer loop
      vertex -6.000000e+000  2.300000e+001  0.000000e+000
      vertex  6.000000e+000  1.600000e+001  0.000000e+000
      vertex -6.000000e+000  1.600000e+001  0.000000e+000
    endloop
  endfacet
  facet normal  0.000000e+000  0.000000e+000 -1.000000e+000
    outer loop
      vertex  3.380602e+000  9.657651e+000  0.000000e+000
      vertex -3.000000e+000  1.157107e+001  0.000000e+000
      vertex  3.000000e+000  1.157107e+001  0.000000e+000
    endloop
  endfacet
  facet normal  0.000000e+000  0.000000e+000 -9.999999e-001
    outer loop
      vertex  3.000000e+000  1.157107e+001  0.000000e+000
      vertex -3.000000e+000  1.157107e+001  0.000000e+000
      vertex -3.000000e+000  1.400000e+001  0.000000e+000
    endloop
  endfacet
  facet normal  0.000000e+000  0.000000e+000 -9.999999e-001
    outer loop
      vertex  3.000000e+000  1.157107e+001  0.000000e+000
      vertex -3.000000e+000  1.400000e+001  0.000000e+000
      vertex  3.000000e+000  1.400000e+001  0.000000e+000
    endloop
  endfacet
  facet normal  0.000000e+000  0.000000e+000 -1.000000e+000
    outer loop
      vertex  3.000000e+000  1.400000e+001  0.000000e+000
      vertex -3.000000e+000  1.400000e+001  0.000000e+000
      vertex -3.292893e+000  1.470711e+001  0.000000e+000
    endloop
  endfacet
  facet normal  0.000000e+000  0.000000e+000 -1.000000e+000
    outer loop
      vertex  3.000000e+000  1.400000e+001  0.000000e+000
      vertex -3.292893e+000  1.470711e+001  0.000000e+000
      vertex  3.292893e+000  1.470711e+001  0.000000e+000
    endloop
  endfacet
  facet normal  0.000000e+000  0.000000e+000 -1.000000e+000
    outer loop
      vertex  3.292893e+000  1.470711e+001  0.000000e+000
      vertex -3.292893e+000  1.470711e+001  0.000000e+000
      vertex -4.000000e+000  1.500000e+001  0.000000e+000
    endloop
  endfacet
  facet normal  0.000000e+000  0.000000e+000 -1.000000e+000
    outer loop
      vertex  3.292893e+000  1.470711e+001  0.000000e+000
      vertex -4.000000e+000  1.500000e+001  0.000000e+000
      vertex  4.000000e+000  1.500000e+001  0.000000e+000
    endloop
  endfacet
  facet normal  8.407292e-015  2.803549e-014 -1.000000e+000
    outer loop
      vertex -3.000000e+000  1.157107e+001  0.000000e+000
      vertex  3.380602e+000  9.657651e+000  0.000000e+000
      vertex -3.380602e+000  9.657651e+000 -5.684342e-014
    endloop
  endfacet
  facet normal  8.407292e-015  5.617571e-015 -1.000000e+000
    outer loop
      vertex -3.380602e+000  9.657651e+000 -5.684342e-014
      vertex  3.380602e+000  9.657651e+000  0.000000e+000
      vertex  4.464466e+000  8.035534e+000  0.000000e+000
    endloop
  endfacet
  facet normal  -0.000000e+000 -3.504274e-014 -9.999999e-001
    outer loop
      vertex -3.380602e+000  9.657651e+000 -5.684342e-014
      vertex  4.464466e+000  8.035534e+000  0.000000e+000
      vertex -4.464466e+000  8.035534e+000  0.000000e+000
    endloop
  endfacet
  facet normal  0.000000e+000  0.000000e+000 -9.999999e-001
    outer loop
      vertex -4.464466e+000  8.035534e+000  0.000000e+000
      vertex  4.464466e+000  8.035534e+000  0.000000e+000
      vertex  1.079289e+001  1.707107e+000  0.000000e+000
    endloop
  endfacet
  facet normal  2.633372e-015  6.348862e-015 -1.000000e+000
    outer loop
      vertex -4.464466e+000  8.035534e+000  0.000000e+000
      vertex  1.079289e+001  1.707107e+000  0.000000e+000
      vertex -1.079289e+001  1.707107e+000 -5.684342e-014
    endloop
  endfacet
  facet normal  2.633373e-015  1.090783e-015 -1.000000e+000
    outer loop
      vertex -1.079289e+001  1.707107e+000 -5.684342e-014
      vertex  1.079289e+001  1.707107e+000  0.000000e+000
      vertex  1.108579e+001  1.000000e+000  0.000000e+000
    endloop
  endfacet
  facet normal  2.563797e-015 -1.061957e-015 -9.999999e-001
    outer loop
      vertex -1.079289e+001  1.707107e+000 -5.684342e-014
      vertex  1.108579e+001  1.000000e+000  0.000000e+000
      vertex -1.108579e+001  1.000000e+000 -5.684342e-014
    endloop
  endfacet
  facet normal  2.563797e-015 -1.061957e-015 -9.999999e-001
    outer loop
      vertex -1.108579e+001  1.000000e+000 -5.684342e-014
      vertex  1.108579e+001  1.000000e+000  0.000000e+000
      vertex  1.079289e+001  2.928932e-001  0.000000e+000
    endloop
  endfacet
  facet normal  2.633372e-015  1.090783e-015 -9.999999e-001
    outer loop
      vertex -1.108579e+001  1.000000e+000 -5.684342e-014
      vertex  1.079289e+001  2.928932e-001  0.000000e+000
      vertex -1.079289e+001  2.928932e-001 -5.684342e-014
    endloop
  endfacet
  facet normal  2.633372e-015 -6.357513e-015 -1.000000e+000
    outer loop
      vertex -1.079289e+001  2.928932e-001 -5.684342e-014
      vertex  1.079289e+001  2.928932e-001  0.000000e+000
      vertex  1.008579e+001  0.000000e+000  0.000000e+000
    endloop
  endfacet
  facet normal  2.817996e-015  6.803252e-015 -1.000000e+000
    outer loop
      vertex -1.079289e+001  2.928932e-001 -5.684342e-014
      vertex  1.008579e+001  0.000000e+000  0.000000e+000
      vertex -1.008579e+001 -5.551115e-017 -5.684342e-014
    endloop
  endfacet
  facet normal  0.000000e+000  0.000000e+000  1.000000e+000
    outer loop
      vertex  5.707107e+000  1.529289e+001  5.000000e+002
      vertex  6.000000e+000  1.600000e+001  5.000000e+002
      vertex -6.000000e+000  1.600000e+001  5.000000e+002
    endloop
  endfacet
  facet normal  0.000000e+000  0.000000e+000  1.000000e+000
    outer loop
      vertex  5.707107e+000  1.529289e+001  5.000000e+002
      vertex -6.000000e+000  1.600000e+001  5.000000e+002
      vertex -5.707107e+000  1.529289e+001  5.000000e+002
    endloop
  endfacet
  facet normal  -0.000000e+000  0.000000e+000  1.000000e+000
    outer loop
      vertex  5.707107e+000  1.529289e+001  5.000000e+002
      vertex -5.707107e+000  1.529289e+001  5.000000e+002
      vertex -5.000000e+000  1.500000e+001  5.000000e+002
    endloop
  endfacet
  facet normal  0.000000e+000  0.000000e+000  1.000000e+000
    outer loop
      vertex  5.707107e+000  1.529289e+001  5.000000e+002
      vertex -5.000000e+000  1.500000e+001  5.000000e+002
      vertex -4.000000e+000  1.500000e+001  5.000000e+002
    endloop
  endfacet
  facet normal  0.000000e+000  0.000000e+000  1.000000e+000
    outer loop
      vertex  5.707107e+000  1.529289e+001  5.000000e+002
      vertex -4.000000e+000  1.500000e+001  5.000000e+002
      vertex  4.000000e+000  1.500000e+001  5.000000e+002
    endloop
  endfacet
  facet normal  0.000000e+000  0.000000e+000  1.000000e+000
    outer loop
      vertex  5.707107e+000  1.529289e+001  5.000000e+002
      vertex  4.000000e+000  1.500000e+001  5.000000e+002
      vertex  5.000000e+000  1.500000e+001  5.000000e+002
    endloop
  endfacet
  facet normal  -0.000000e+000  0.000000e+000  1.000000e+000
    outer loop
      vertex  4.000000e+000  2.500000e+001  5.000000e+002
      vertex -4.000000e+000  2.500000e+001  5.000000e+002
      vertex  5.414214e+000  2.441421e+001  5.000000e+002
    endloop
  endfacet
  facet normal  0.000000e+000  0.000000e+000  1.000000e+000
    outer loop
      vertex  5.414214e+000  2.441421e+001  5.000000e+002
      vertex -4.000000e+000  2.500000e+001  5.000000e+002
      vertex -5.414214e+000  2.441421e+001  5.000000e+002
    endloop
  endfacet
  facet normal  -0.000000e+000  0.000000e+000  1.000000e+000
    outer loop
      vertex  5.414214e+000  2.441421e+001  5.000000e+002
      vertex -5.414214e+000  2.441421e+001  5.000000e+002
      vertex  6.000000e+000  2.300000e+001  5.000000e+002
    endloop
  endfacet
  facet normal  0.000000e+000  0.000000e+000  1.000000e+000
    outer loop
      vertex  6.000000e+000  2.300000e+001  5.000000e+002
      vertex -5.414214e+000  2.441421e+001  5.000000e+002
      vertex -6.000000e+000  2.300000e+001  5.000000e+002
    endloop
  endfacet
  facet normal  -0.000000e+000  0.000000e+000  1.000000e+000
    outer loop
      vertex  6.000000e+000  2.300000e+001  5.000000e+002
      vertex -6.000000e+000  2.300000e+001  5.000000e+002
      vertex  6.000000e+000  1.600000e+001  5.000000e+002
    endloop
  endfacet
  facet normal  0.000000e+000  0.000000e+000  1.000000e+000
    outer loop
      vertex  6.000000e+000  1.600000e+001  5.000000e+002
      vertex -6.000000e+000  2.300000e+001  5.000000e+002
      vertex -6.000000e+000  1.600000e+001  5.000000e+002
    endloop
  endfacet
  facet normal  -0.000000e+000  0.000000e+000  1.000000e+000
    outer loop
      vertex  4.000000e+000  1.500000e+001  5.000000e+002
      vertex -4.000000e+000  1.500000e+001  5.000000e+002
      vertex  3.292893e+000  1.470711e+001  5.000000e+002
    endloop
  endfacet
  facet normal  0.000000e+000  0.000000e+000  1.000000e+000
    outer loop
      vertex  3.292893e+000  1.470711e+001  5.000000e+002
      vertex -4.000000e+000  1.500000e+001  5.000000e+002
      vertex -3.292893e+000  1.470711e+001  5.000000e+002
    endloop
  endfacet
  facet normal  -0.000000e+000  0.000000e+000  1.000000e+000
    outer loop
      vertex  3.292893e+000  1.470711e+001  5.000000e+002
      vertex -3.292893e+000  1.470711e+001  5.000000e+002
      vertex  3.000000e+000  1.400000e+001  5.000000e+002
    endloop
  endfacet
  facet normal  0.000000e+000  0.000000e+000  1.000000e+000
    outer loop
      vertex  3.000000e+000  1.400000e+001  5.000000e+002
      vertex -3.292893e+000  1.470711e+001  5.000000e+002
      vertex -3.000000e+000  1.400000e+001  5.000000e+002
    endloop
  endfacet
  facet normal  -0.000000e+000  0.000000e+000  9.999999e-001
    outer loop
      vertex  3.000000e+000  1.400000e+001  5.000000e+002
      vertex -3.000000e+000  1.400000e+001  5.000000e+002
      vertex  3.000000e+000  1.157107e+001  5.000000e+002
    endloop
  endfacet
  facet normal  0.000000e+000  0.000000e+000  9.999999e-001
    outer loop
      vertex  3.000000e+000  1.157107e+001  5.000000e+002
      vertex -3.000000e+000  1.400000e+001  5.000000e+002
      vertex -3.000000e+000  1.157107e+001  5.000000e+002
    endloop
  endfacet
  facet normal  -0.000000e+000  0.000000e+000  1.000000e+000
    outer loop
      vertex  3.000000e+000  1.157107e+001  5.000000e+002
      vertex -3.000000e+000  1.157107e+001  5.000000e+002
      vertex  3.380602e+000  9.657651e+000  5.000000e+002
    endloop
  endfacet
  facet normal  0.000000e+000  0.000000e+000  1.000000e+000
    outer loop
      vertex  3.380602e+000  9.657651e+000  5.000000e+002
      vertex -3.000000e+000  1.157107e+001  5.000000e+002
      vertex -3.380602e+000  9.657651e+000  5.000000e+002
    endloop
  endfacet
  facet normal  -0.000000e+000  0.000000e+000  1.000000e+000
    outer loop
      vertex  3.380602e+000  9.657651e+000  5.000000e+002
      vertex -3.380602e+000  9.657651e+000  5.000000e+002
      vertex  4.464466e+000  8.035534e+000  5.000000e+002
    endloop
  endfacet
  facet normal  0.000000e+000  0.000000e+000  9.999999e-001
    outer loop
      vertex  4.464466e+000  8.035534e+000  5.000000e+002
      vertex -3.380602e+000  9.657651e+000  5.000000e+002
      vertex -4.464466e+000  8.035534e+000  5.000000e+002
    endloop
  endfacet
  facet normal  -0.000000e+000  0.000000e+000  9.999999e-001
    outer loop
      vertex  4.464466e+000  8.035534e+000  5.000000e+002
      vertex -4.464466e+000  8.035534e+000  5.000000e+002
      vertex  1.079289e+001  1.707107e+000  5.000000e+002
    endloop
  endfacet
  facet normal  0.000000e+000  0.000000e+000  1.000000e+000
    outer loop
      vertex  1.079289e+001  1.707107e+000  5.000000e+002
      vertex -4.464466e+000  8.035534e+000  5.000000e+002
      vertex -1.079289e+001  1.707107e+000  5.000000e+002
    endloop
  endfacet
  facet normal  -0.000000e+000  0.000000e+000  1.000000e+000
    outer loop
      vertex  1.079289e+001  1.707107e+000  5.000000e+002
      vertex -1.079289e+001  1.707107e+000  5.000000e+002
      vertex  1.108579e+001  1.000000e+000  5.000000e+002
    endloop
  endfacet
  facet normal  0.000000e+000  0.000000e+000  9.999999e-001
    outer loop
      vertex  1.108579e+001  1.000000e+000  5.000000e+002
      vertex -1.079289e+001  1.707107e+000  5.000000e+002
      vertex -1.108579e+001  1.000000e+000  5.000000e+002
    endloop
  endfacet
  facet normal  -0.000000e+000  0.000000e+000  9.999999e-001
    outer loop
      vertex  1.108579e+001  1.000000e+000  5.000000e+002
      vertex -1.108579e+001  1.000000e+000  5.000000e+002
      vertex  1.079289e+001  2.928932e-001  5.000000e+002
    endloop
  endfacet
  facet normal  0.000000e+000  0.000000e+000  9.999999e-001
    outer loop
      vertex  1.079289e+001  2.928932e-001  5.000000e+002
      vertex -1.108579e+001  1.000000e+000  5.000000e+002
      vertex -1.079289e+001  2.928932e-001  5.000000e+002
    endloop
  endfacet
  facet normal  -0.000000e+000  0.000000e+000  1.000000e+000
    outer loop
      vertex  1.079289e+001  2.928932e-001  5.000000e+002
      vertex -1.079289e+001  2.928932e-001  5.000000e+002
      vertex  1.008579e+001  0.000000e+000  5.000000e+002
    endloop
  endfacet
  facet normal  0.000000e+000  0.000000e+000  1.000000e+000
    outer loop
      vertex  1.008579e+001  0.000000e+000  5.000000e+002
      vertex -1.079289e+001  2.928932e-001  5.000000e+002
      vertex -1.008579e+001 -1.110223e-016  5.000000e+002
    endloop
  endfacet
  facet normal -9.807853e-001  1.950904e-001  0.000000e+000
    outer loop
      vertex -3.000000e+000  1.157107e+001  0.000000e+000
      vertex -3.380602e+000  9.657651e+000 -5.684342e-014
      vertex -3.000000e+000  1.157107e+001  5.000000e+002
    endloop
  endfacet
  facet normal -9.807853e-001  1.950904e-001  0.000000e+000
    outer loop
      vertex -3.000000e+000  1.157107e+001  5.000000e+002
      vertex -3.380602e+000  9.657651e+000 -5.684342e-014
      vertex -3.380602e+000  9.657651e+000  5.000000e+002
    endloop
  endfacet
  facet normal -8.314697e-001  5.555701e-001  0.000000e+000
    outer loop
      vertex -3.380602e+000  9.657651e+000 -5.684342e-014
      vertex -4.464466e+000  8.035534e+000  0.000000e+000
      vertex -3.380602e+000  9.657651e+000  5.000000e+002
    endloop
  endfacet
  facet normal -8.314697e-001  5.555701e-001  0.000000e+000
    outer loop
      vertex -3.380602e+000  9.657651e+000  5.000000e+002
      vertex -4.464466e+000  8.035534e+000  0.000000e+000
      vertex -4.464466e+000  8.035534e+000  5.000000e+002
    endloop
  endfacet
  facet normal -1.000000e+000  0.000000e+000  0.000000e+000
    outer loop
      vertex -3.000000e+000  1.157107e+001  0.000000e+000
      vertex -3.000000e+000  1.157107e+001  5.000000e+002
      vertex -3.000000e+000  1.400000e+001  0.000000e+000
    endloop
  endfacet
  facet normal -1.000000e+000  0.000000e+000  0.000000e+000
    outer loop
      vertex -3.000000e+000  1.400000e+001  0.000000e+000
      vertex -3.000000e+000  1.157107e+001  5.000000e+002
      vertex -3.000000e+000  1.400000e+001  5.000000e+002
    endloop
  endfacet
  facet normal -7.071068e-001  7.071068e-001  0.000000e+000
    outer loop
      vertex -1.079289e+001  1.707107e+000 -5.684342e-014
      vertex -1.079289e+001  1.707107e+000  5.000000e+002
      vertex -4.464466e+000  8.035534e+000  0.000000e+000
    endloop
  endfacet
  facet normal -7.071068e-001  7.071068e-001  0.000000e+000
    outer loop
      vertex -4.464466e+000  8.035534e+000  0.000000e+000
      vertex -1.079289e+001  1.707107e+000  5.000000e+002
      vertex -4.464466e+000  8.035534e+000  5.000000e+002
    endloop
  endfacet
  facet normal  9.238794e-001 -3.826837e-001  0.000000e+000
    outer loop
      vertex  6.000000e+000  1.600000e+001  0.000000e+000
      vertex  6.000000e+000  1.600000e+001  5.000000e+002
      vertex  5.707107e+000  1.529289e+001  0.000000e+000
    endloop
  endfacet
  facet normal  9.238794e-001 -3.826837e-001  0.000000e+000
    outer loop
      vertex  5.707107e+000  1.529289e+001  0.000000e+000
      vertex  6.000000e+000  1.600000e+001  5.000000e+002
      vertex  5.707107e+000  1.529289e+001  5.000000e+002
    endloop
  endfacet
  facet normal  3.826837e-001 -9.238794e-001  0.000000e+000
    outer loop
      vertex  5.707107e+000  1.529289e+001  0.000000e+000
      vertex  5.707107e+000  1.529289e+001  5.000000e+002
      vertex  5.000000e+000  1.500000e+001  0.000000e+000
    endloop
  endfacet
  facet normal  3.826837e-001 -9.238794e-001  0.000000e+000
    outer loop
      vertex  5.000000e+000  1.500000e+001  0.000000e+000
      vertex  5.707107e+000  1.529289e+001  5.000000e+002
      vertex  5.000000e+000  1.500000e+001  5.000000e+002
    endloop
  endfacet
  facet normal  0.000000e+000 -1.000000e+000  -0.000000e+000
    outer loop
      vertex  5.000000e+000  1.500000e+001  0.000000e+000
      vertex  5.000000e+000  1.500000e+001  5.000000e+002
      vertex  4.000000e+000  1.500000e+001  0.000000e+000
    endloop
  endfacet
  facet normal  0.000000e+000 -1.000000e+000  0.000000e+000
    outer loop
      vertex  4.000000e+000  1.500000e+001  0.000000e+000
      vertex  5.000000e+000  1.500000e+001  5.000000e+002
      vertex  4.000000e+000  1.500000e+001  5.000000e+002
    endloop
  endfacet
  facet normal  1.000000e+000  0.000000e+000  0.000000e+000
    outer loop
      vertex  6.000000e+000  2.300000e+001  0.000000e+000
      vertex  6.000000e+000  2.300000e+001  5.000000e+002
      vertex  6.000000e+000  1.600000e+001  0.000000e+000
    endloop
  endfacet
  facet normal  1.000000e+000  0.000000e+000  0.000000e+000
    outer loop
      vertex  6.000000e+000  1.600000e+001  0.000000e+000
      vertex  6.000000e+000  2.300000e+001  5.000000e+002
      vertex  6.000000e+000  1.600000e+001  5.000000e+002
    endloop
  endfacet
  facet normal -3.826837e-001 -9.238794e-001  -0.000000e+000
    outer loop
      vertex -5.000000e+000  1.500000e+001  0.000000e+000
      vertex -5.000000e+000  1.500000e+001  5.000000e+002
      vertex -5.707107e+000  1.529289e+001  0.000000e+000
    endloop
  endfacet
  facet normal -3.826837e-001 -9.238794e-001  0.000000e+000
    outer loop
      vertex -5.707107e+000  1.529289e+001  0.000000e+000
      vertex -5.000000e+000  1.500000e+001  5.000000e+002
      vertex -5.707107e+000  1.529289e+001  5.000000e+002
    endloop
  endfacet
  facet normal -9.238794e-001 -3.826837e-001  -0.000000e+000
    outer loop
      vertex -5.707107e+000  1.529289e+001  0.000000e+000
      vertex -5.707107e+000  1.529289e+001  5.000000e+002
      vertex -6.000000e+000  1.600000e+001  0.000000e+000
    endloop
  endfacet
  facet normal -9.238794e-001 -3.826837e-001  0.000000e+000
    outer loop
      vertex -6.000000e+000  1.600000e+001  0.000000e+000
      vertex -5.707107e+000  1.529289e+001  5.000000e+002
      vertex -6.000000e+000  1.600000e+001  5.000000e+002
    endloop
  endfacet
  facet normal  0.000000e+000 -1.000000e+000  -0.000000e+000
    outer loop
      vertex -4.000000e+000  1.500000e+001  0.000000e+000
      vertex -4.000000e+000  1.500000e+001  5.000000e+002
      vertex -5.000000e+000  1.500000e+001  0.000000e+000
    endloop
  endfacet
  facet normal  0.000000e+000 -1.000000e+000  0.000000e+000
    outer loop
      vertex -5.000000e+000  1.500000e+001  0.000000e+000
      vertex -4.000000e+000  1.500000e+001  5.000000e+002
      vertex -5.000000e+000  1.500000e+001  5.000000e+002
    endloop
  endfacet
  facet normal -1.000000e+000  0.000000e+000  0.000000e+000
    outer loop
      vertex -6.000000e+000  1.600000e+001  0.000000e+000
      vertex -6.000000e+000  1.600000e+001  5.000000e+002
      vertex -6.000000e+000  2.300000e+001  0.000000e+000
    endloop
  endfacet
  facet normal -1.000000e+000  0.000000e+000  0.000000e+000
    outer loop
      vertex -6.000000e+000  2.300000e+001  0.000000e+000
      vertex -6.000000e+000  1.600000e+001  5.000000e+002
      vertex -6.000000e+000  2.300000e+001  5.000000e+002
    endloop
  endfacet
  facet normal  9.238794e-001  3.826836e-001  0.000000e+000
    outer loop
      vertex  1.079289e+001  1.707107e+000  0.000000e+000
      vertex  1.079289e+001  1.707107e+000  5.000000e+002
      vertex  1.108579e+001  1.000000e+000  0.000000e+000
    endloop
  endfacet
  facet normal  9.238794e-001  3.826836e-001  -0.000000e+000
    outer loop
      vertex  1.108579e+001  1.000000e+000  0.000000e+000
      vertex  1.079289e+001  1.707107e+000  5.000000e+002
      vertex  1.108579e+001  1.000000e+000  5.000000e+002
    endloop
  endfacet
  facet normal  9.238794e-001 -3.826837e-001  0.000000e+000
    outer loop
      vertex  1.108579e+001  1.000000e+000  0.000000e+000
      vertex  1.108579e+001  1.000000e+000  5.000000e+002
      vertex  1.079289e+001  2.928932e-001  0.000000e+000
    endloop
  endfacet
  facet normal  9.238794e-001 -3.826837e-001  0.000000e+000
    outer loop
      vertex  1.079289e+001  2.928932e-001  0.000000e+000
      vertex  1.108579e+001  1.000000e+000  5.000000e+002
      vertex  1.079289e+001  2.928932e-001  5.000000e+002
    endloop
  endfacet
  facet normal  3.826835e-001 -9.238796e-001  0.000000e+000
    outer loop
      vertex  1.079289e+001  2.928932e-001  0.000000e+000
      vertex  1.079289e+001  2.928932e-001  5.000000e+002
      vertex  1.008579e+001  0.000000e+000  0.000000e+000
    endloop
  endfacet
  facet normal  3.826835e-001 -9.238796e-001  0.000000e+000
    outer loop
      vertex  1.008579e+001  0.000000e+000  0.000000e+000
      vertex  1.079289e+001  2.928932e-001  5.000000e+002
      vertex  1.008579e+001  0.000000e+000  5.000000e+002
    endloop
  endfacet
  facet normal  2.751949e-018 -1.000000e+000  0.000000e+000
    outer loop
      vertex  1.008579e+001  0.000000e+000  0.000000e+000
      vertex  1.008579e+001  0.000000e+000  5.000000e+002
      vertex -1.008579e+001 -5.551115e-017 -5.684342e-014
    endloop
  endfacet
  facet normal  5.503898e-018 -1.000000e+000 -1.110223e-019
    outer loop
      vertex -1.008579e+001 -5.551115e-017 -5.684342e-014
      vertex  1.008579e+001  0.000000e+000  5.000000e+002
      vertex -1.008579e+001 -1.110223e-016  5.000000e+002
    endloop
  endfacet
  facet normal  9.238796e-001 -3.826835e-001  0.000000e+000
    outer loop
      vertex  3.000000e+000  1.400000e+001  0.000000e+000
      vertex  3.292893e+000  1.470711e+001  0.000000e+000
      vertex  3.000000e+000  1.400000e+001  5.000000e+002
    endloop
  endfacet
  facet normal  9.238796e-001 -3.826835e-001  0.000000e+000
    outer loop
      vertex  3.000000e+000  1.400000e+001  5.000000e+002
      vertex  3.292893e+000  1.470711e+001  0.000000e+000
      vertex  3.292893e+000  1.470711e+001  5.000000e+002
    endloop
  endfacet
  facet normal  3.826836e-001 -9.238794e-001  0.000000e+000
    outer loop
      vertex  3.292893e+000  1.470711e+001  0.000000e+000
      vertex  4.000000e+000  1.500000e+001  0.000000e+000
      vertex  3.292893e+000  1.470711e+001  5.000000e+002
    endloop
  endfacet
  facet normal  3.826836e-001 -9.238794e-001  0.000000e+000
    outer loop
      vertex  3.292893e+000  1.470711e+001  5.000000e+002
      vertex  4.000000e+000  1.500000e+001  0.000000e+000
      vertex  4.000000e+000  1.500000e+001  5.000000e+002
    endloop
  endfacet
  facet normal -3.826836e-001 -9.238794e-001  0.000000e+000
    outer loop
      vertex -4.000000e+000  1.500000e+001  0.000000e+000
      vertex -3.292893e+000  1.470711e+001  0.000000e+000
      vertex -4.000000e+000  1.500000e+001  5.000000e+002
    endloop
  endfacet
  facet normal -3.826836e-001 -9.238794e-001  0.000000e+000
    outer loop
      vertex -4.000000e+000  1.500000e+001  5.000000e+002
      vertex -3.292893e+000  1.470711e+001  0.000000e+000
      vertex -3.292893e+000  1.470711e+001  5.000000e+002
    endloop
  endfacet
  facet normal -9.238796e-001 -3.826835e-001  0.000000e+000
    outer loop
      vertex -3.292893e+000  1.470711e+001  0.000000e+000
      vertex -3.000000e+000  1.400000e+001  0.000000e+000
      vertex -3.292893e+000  1.470711e+001  5.000000e+002
    endloop
  endfacet
  facet normal -9.238796e-001 -3.826835e-001  0.000000e+000
    outer loop
      vertex -3.292893e+000  1.470711e+001  5.000000e+002
      vertex -3.000000e+000  1.400000e+001  0.000000e+000
      vertex -3.000000e+000  1.400000e+001  5.000000e+002
    endloop
  endfacet
  facet normal -3.826835e-001 -9.238796e-001 -1.025712e-019
    outer loop
      vertex -1.008579e+001 -5.551115e-017 -5.684342e-014
      vertex -1.008579e+001 -1.110223e-016  5.000000e+002
      vertex -1.079289e+001  2.928932e-001 -5.684342e-014
    endloop
  endfacet
  facet normal -3.826835e-001 -9.238796e-001  0.000000e+000
    outer loop
      vertex -1.079289e+001  2.928932e-001 -5.684342e-014
      vertex -1.008579e+001 -1.110223e-016  5.000000e+002
      vertex -1.079289e+001  2.928932e-001  5.000000e+002
    endloop
  endfacet
  facet normal -9.238794e-001 -3.826837e-001  -0.000000e+000
    outer loop
      vertex -1.079289e+001  2.928932e-001 -5.684342e-014
      vertex -1.079289e+001  2.928932e-001  5.000000e+002
      vertex -1.108579e+001  1.000000e+000 -5.684342e-014
    endloop
  endfacet
  facet normal -9.238794e-001 -3.826837e-001  0.000000e+000
    outer loop
      vertex -1.108579e+001  1.000000e+000 -5.684342e-014
      vertex -1.079289e+001  2.928932e-001  5.000000e+002
      vertex -1.108579e+001  1.000000e+000  5.000000e+002
    endloop
  endfacet
  facet normal -9.238794e-001  3.826836e-001  0.000000e+000
    outer loop
      vertex -1.108579e+001  1.000000e+000 -5.684342e-014
      vertex -1.108579e+001  1.000000e+000  5.000000e+002
      vertex -1.079289e+001  1.707107e+000 -5.684342e-014
    endloop
  endfacet
  facet normal -9.238794e-001  3.826836e-001  0.000000e+000
    outer loop
      vertex -1.079289e+001  1.707107e+000 -5.684342e-014
      vertex -1.108579e+001  1.000000e+000  5.000000e+002
      vertex -1.079289e+001  1.707107e+000  5.000000e+002
    endloop
  endfacet
  facet normal  3.826836e-001  9.238794e-001  0.000000e+000
    outer loop
      vertex  4.000000e+000  2.500000e+001  0.000000e+000
      vertex  4.000000e+000  2.500000e+001  5.000000e+002
      vertex  5.414214e+000  2.441421e+001  0.000000e+000
    endloop
  endfacet
  facet normal  3.826836e-001  9.238794e-001  -0.000000e+000
    outer loop
      vertex  5.414214e+000  2.441421e+001  0.000000e+000
      vertex  4.000000e+000  2.500000e+001  5.000000e+002
      vertex  5.414214e+000  2.441421e+001  5.000000e+002
    endloop
  endfacet
  facet normal  9.238796e-001  3.826835e-001  0.000000e+000
    outer loop
      vertex  5.414214e+000  2.441421e+001  0.000000e+000
      vertex  5.414214e+000  2.441421e+001  5.000000e+002
      vertex  6.000000e+000  2.300000e+001  0.000000e+000
    endloop
  endfacet
  facet normal  9.238796e-001  3.826835e-001  -0.000000e+000
    outer loop
      vertex  6.000000e+000  2.300000e+001  0.000000e+000
      vertex  5.414214e+000  2.441421e+001  5.000000e+002
      vertex  6.000000e+000  2.300000e+001  5.000000e+002
    endloop
  endfacet
  facet normal  0.000000e+000  1.000000e+000  0.000000e+000
    outer loop
      vertex -4.000000e+000  2.500000e+001  0.000000e+000
      vertex -4.000000e+000  2.500000e+001  5.000000e+002
      vertex  4.000000e+000  2.500000e+001  0.000000e+000
    endloop
  endfacet
  facet normal  0.000000e+000  1.000000e+000  -0.000000e+000
    outer loop
      vertex  4.000000e+000  2.500000e+001  0.000000e+000
      vertex -4.000000e+000  2.500000e+001  5.000000e+002
      vertex  4.000000e+000  2.500000e+001  5.000000e+002
    endloop
  endfacet
  facet normal -9.238796e-001  3.826835e-001  0.000000e+000
    outer loop
      vertex -6.000000e+000  2.300000e+001  0.000000e+000
      vertex -6.000000e+000  2.300000e+001  5.000000e+002
      vertex -5.414214e+000  2.441421e+001  0.000000e+000
    endloop
  endfacet
  facet normal -9.238796e-001  3.826835e-001  0.000000e+000
    outer loop
      vertex -5.414214e+000  2.441421e+001  0.000000e+000
      vertex -6.000000e+000  2.300000e+001  5.000000e+002
      vertex -5.414214e+000  2.441421e+001  5.000000e+002
    endloop
  endfacet
  facet normal -3.826836e-001  9.238794e-001  0.000000e+000
    outer loop
      vertex -5.414214e+000  2.441421e+001  0.000000e+000
      vertex -5.414214e+000  2.441421e+001  5.000000e+002
      vertex -4.000000e+000  2.500000e+001  0.000000e+000
    endloop
  endfacet
  facet normal -3.826836e-001  9.238794e-001  0.000000e+000
    outer loop
      vertex -4.000000e+000  2.500000e+001  0.000000e+000
      vertex -5.414214e+000  2.441421e+001  5.000000e+002
      vertex -4.000000e+000  2.500000e+001  5.000000e+002
    endloop
  endfacet
endsolid CATIA STL
